<?xml version="1.0" encoding="UTF-8"?>
<!DOCTYPE svg PUBLIC "-//W3C//DTD SVG 1.1//EN" "http://www.w3.org/Graphics/SVG/1.1/DTD/svg11.dtd">
<!-- Creator: CorelDRAW X6 -->
<svg xmlns="http://www.w3.org/2000/svg" xml:space="preserve" width="350px" height="145px" version="1.1" style="shape-rendering:geometricPrecision; text-rendering:geometricPrecision; image-rendering:optimizeQuality; fill-rule:evenodd; clip-rule:evenodd"
viewBox="0 0 4861 2014"
 xmlns:xlink="http://www.w3.org/1999/xlink">
 <defs>
  <style type="text/css">
   <![CDATA[
    .fil1 {fill:#386266;fill-rule:nonzero}
    .fil2 {fill:#7CA4AC;fill-rule:nonzero}
    .fil0 {fill:#839643;fill-rule:nonzero}
    .fil6 {fill:#9BA64B;fill-rule:nonzero}
    .fil3 {fill:#A8A594;fill-rule:nonzero}
    .fil4 {fill:#A9CAC1;fill-rule:nonzero}
    .fil5 {fill:#B3BA51;fill-rule:nonzero}
   ]]>
  </style>
 </defs>
 <g id="Layer_x0020_1">
  <metadata id="CorelCorpID_0Corel-Layer"/>
  <path class="fil0" d="M126 1290c49,-2 62,-13 62,-36l0 -291c0,-22 -12,-34 -62,-36l0 -6 329 0 2 121 -8 1c-33,-77 -59,-112 -126,-112l-68 0 0 166 31 0c47,0 72,-17 87,-74l7 0 0 158 -7 0c-15,-57 -40,-74 -87,-74l-31 0 0 180 67 0c79,0 109,-36 144,-119l8 1 -3 128 -344 0 0 -7z"/>
  <path class="fil0" d="M506 1115c0,-119 92,-203 207,-203 41,0 75,9 102,22l25 -25 6 0 0 131 -7 0c-31,-76 -72,-118 -133,-118 -67,0 -125,58 -125,187 0,126 71,177 139,177 65,0 110,-39 135,-91l10 5c-24,53 -74,106 -165,106 -116,0 -194,-75 -194,-192z"/>
  <path class="fil0" d="M1194 1110c0,-141 -49,-187 -120,-187 -70,0 -114,46 -114,187 0,141 48,187 119,187 70,0 114,-46 114,-187zm-309 1c0,-119 90,-198 192,-198 104,0 192,77 192,196 0,119 -90,198 -192,198 -105,0 -192,-77 -192,-196z"/>
  <path class="fil1" d="M1311 1115c0,-119 92,-203 207,-203 41,0 75,9 102,22l25 -25 6 0 0 131 -7 0c-31,-76 -72,-118 -133,-118 -67,0 -125,58 -125,187 0,126 71,177 139,177 65,0 110,-39 135,-91l10 5c-24,53 -74,106 -165,106 -116,0 -194,-75 -194,-192z"/>
  <path class="fil1" d="M1879 1143l-59 -159 -2 0 -65 159 126 0zm4 11l-134 0 -19 47c-26,64 -16,82 36,90l0 7 -133 0 0 -7c37,-10 58,-31 82,-89l121 -291 24 0 127 328c14,37 23,46 66,52l0 7 -186 0 0 -7c54,-3 62,-14 50,-44l-34 -93z"/>
  <path class="fil1" d="M2196 1103c76,0 92,-31 92,-88 0,-51 -23,-84 -99,-84l-40 0 0 172 48 0zm-48 152c0,23 12,34 60,36l0 7 -188 0 0 -7c49,-2 62,-13 62,-36l0 -291c0,-22 -12,-34 -62,-36l0 -6 178 0c117,0 161,40 161,91 0,46 -33,83 -120,95l0 2c84,3 104,38 112,93l4 31c8,48 17,55 66,55l0 6c-19,4 -40,6 -58,6 -61,0 -73,-20 -78,-69l-6 -50c-6,-55 -22,-69 -87,-69l-43 0 0 141z"/>
  <path class="fil1" d="M2576 1287c113,0 150,-42 150,-180 0,-140 -49,-175 -148,-175l-40 0 0 356 38 0zm-166 3c49,-2 62,-13 62,-36l0 -291c0,-22 -12,-34 -62,-36l0 -6 177 0c141,0 214,78 214,181 0,100 -62,195 -207,195l-184 0 0 -7z"/>
  <path class="fil1" d="M2833 1172l8 0c34,72 74,122 135,122 56,0 83,-36 83,-70 0,-47 -34,-66 -104,-90 -57,-19 -116,-36 -116,-106 0,-71 57,-115 134,-115 33,0 65,9 85,18l20 -22 7 0 0 120 -8 0c-31,-71 -67,-107 -113,-107 -39,0 -74,24 -74,66 0,46 37,64 102,84 54,17 112,36 112,106 0,59 -37,124 -135,124 -32,0 -70,-11 -95,-24l-34 26 -7 0 0 -135z"/>
  <path class="fil2" d="M2263 1605c0,-16 14,-30 31,-30 17,0 30,13 30,29 0,16 -13,30 -30,30 -18,0 -31,-13 -31,-29z"/>
  <path class="fil2" d="M2530 1498c0,-86 -25,-121 -68,-121 -42,0 -64,35 -64,121 0,86 26,122 69,122 42,0 63,-35 63,-122zm-197 1c0,-78 60,-133 132,-133 74,0 131,52 131,130 0,79 -60,133 -131,133 -75,0 -132,-52 -132,-131z"/>
  <path class="fil2" d="M2616 1619c32,-1 40,-4 40,-21l0 -190c0,-17 -8,-27 -40,-28l0 -7 98 -4 0 56c20,-36 47,-58 76,-58 31,0 45,19 45,40 0,21 -14,36 -34,36 -21,0 -35,-14 -35,-34 0,-6 2,-13 3,-17 -22,3 -37,19 -53,46l0 160c0,17 11,20 49,21l0 7 -148 0 0 -7z"/>
  <path class="fil2" d="M3006 1453c0,-46 -16,-75 -49,-75 -32,0 -44,24 -44,75 0,52 16,76 49,76 32,0 44,-24 44,-76zm47 214c0,-22 -18,-36 -74,-36l-57 0c-27,8 -40,22 -40,43 0,31 25,54 85,54 48,0 86,-24 86,-60zm-42 -289c12,-24 29,-45 57,-45 21,0 33,12 33,28 0,13 -10,24 -24,24 -12,0 -25,-11 -25,-28 -13,2 -24,14 -31,26 27,14 46,36 46,69 0,54 -51,86 -106,86 -12,0 -25,-2 -37,-4 -22,7 -33,15 -33,27 0,11 10,20 54,20l44 0c68,0 103,20 103,67 0,46 -48,89 -138,89 -70,0 -114,-24 -114,-56 0,-25 24,-46 68,-52l0 -1c-35,-9 -49,-26 -49,-48 0,-18 17,-38 52,-50 -32,-13 -56,-37 -56,-75 0,-53 52,-86 107,-86 17,0 35,4 51,11z"/>
  <path class="fil3" d="M471 735c-23,0 -39,18 -39,41 0,23 16,41 39,41 24,0 39,-18 39,-41 0,-23 -16,-41 -39,-41zm40 -10l32 0 0 16 -27 0c8,9 14,22 14,36 0,29 -23,54 -53,56 -34,3 -42,10 -42,21 0,10 10,16 38,18 50,5 70,23 70,48 0,31 -30,54 -71,54 -42,0 -70,-18 -70,-43 0,-18 15,-31 29,-34l9 5c-10,4 -18,14 -18,27 0,20 25,29 51,29 32,0 50,-14 50,-34 0,-20 -17,-28 -55,-32 -29,-3 -52,-11 -52,-36 0,-10 9,-23 27,-29 -18,-8 -32,-29 -32,-50 0,-31 27,-57 59,-57 16,0 26,5 40,5z"/>
  <path class="fil3" d="M603 781l0 83 -21 0 0 -139 17 -4 2 28c10,-16 32,-31 55,-31l0 23c-26,-4 -53,14 -53,39z"/>
  <path class="fil3" d="M748 736c-20,0 -40,12 -45,37l83 0c2,-21 -13,-37 -38,-37zm2 133c-41,0 -70,-33 -70,-76 0,-46 33,-74 67,-74 34,0 59,23 59,55 0,5 -1,10 -2,15l-103 0c-2,29 11,63 57,63 15,0 31,-7 42,-15l7 13c-13,12 -34,20 -58,20z"/>
  <path class="fil3" d="M912 736c-20,0 -40,12 -45,37l83 0c2,-21 -13,-37 -38,-37zm2 133c-41,0 -70,-33 -70,-76 0,-46 33,-74 67,-74 34,0 59,23 59,55 0,5 -1,10 -2,15l-103 0c-2,29 11,63 57,63 15,0 31,-7 42,-15l7 13c-13,12 -34,20 -58,20z"/>
  <path class="fil3" d="M1054 867c-23,0 -31,-15 -31,-46l0 -81 -22 0 0 -16 22 0 0 -39 21 -4 0 43 36 0 0 16 -36 0 0 84c0,16 4,26 16,26 10,0 17,-3 22,-7l3 11c-7,7 -17,12 -31,12z"/>
  <path class="fil3" d="M1122 864l0 -140 21 -4 0 143 -21 0zm25 -199c0,8 -7,14 -14,14 -8,0 -14,-7 -14,-14 0,-8 7,-14 14,-14 8,0 14,7 14,14z"/>
  <path class="fil3" d="M1303 864l0 -85c0,-30 -14,-41 -35,-41 -22,0 -52,18 -52,43l0 83 -21 0 0 -139 17 -4 2 28c10,-16 33,-31 57,-31 38,0 52,26 52,59l0 86 -21 0z"/>
  <path class="fil3" d="M1425 735c-23,0 -39,18 -39,41 0,23 16,41 39,41 24,0 39,-18 39,-41 0,-23 -16,-41 -39,-41zm40 -10l32 0 0 16 -27 0c8,9 14,22 14,36 0,29 -23,54 -53,56 -34,3 -42,10 -42,21 0,10 10,16 38,18 50,5 70,23 70,48 0,31 -30,54 -71,54 -42,0 -70,-18 -70,-43 0,-18 15,-31 29,-34l9 5c-10,4 -18,14 -18,27 0,20 25,29 51,29 32,0 50,-14 50,-34 0,-20 -17,-28 -55,-32 -29,-3 -52,-11 -52,-36 0,-10 9,-23 27,-29 -18,-8 -32,-29 -32,-50 0,-31 27,-57 59,-57 16,0 26,5 40,5z"/>
  <path class="fil3" d="M1575 869c-25,0 -45,-11 -50,-14l4 -17c11,6 27,14 47,14 19,0 32,-7 32,-25 0,-13 -11,-19 -36,-26 -29,-7 -42,-23 -42,-41 0,-22 16,-41 49,-41 19,0 36,9 41,11l-4 17c-10,-6 -25,-11 -37,-11 -21,0 -30,9 -30,21 0,13 10,19 30,25 31,7 48,23 48,42 0,28 -21,46 -53,46z"/>
  <path class="fil3" d="M1779 867c-23,0 -31,-15 -31,-46l0 -81 -22 0 0 -16 22 0 0 -39 21 -4 0 43 36 0 0 16 -36 0 0 84c0,16 4,26 16,26 10,0 17,-3 22,-7l3 11c-7,7 -17,12 -31,12z"/>
  <path class="fil3" d="M1956 864l0 -85c0,-30 -14,-41 -35,-41 -22,0 -52,18 -52,43l0 83 -21 0 0 -246 21 -4 0 134c10,-16 33,-30 56,-30 38,0 52,26 52,59l0 86 -21 0z"/>
  <path class="fil3" d="M2109 793c-45,4 -73,20 -73,39 0,14 11,19 24,19 9,0 29,-7 49,-25l0 -32zm24 74c-15,0 -23,-7 -24,-26 -22,20 -42,27 -58,27 -19,0 -35,-14 -35,-34 0,-34 43,-51 93,-56l0 -10c0,-22 -9,-31 -32,-31 -14,0 -36,8 -51,17l0 -19c12,-7 37,-16 54,-16 30,0 50,11 50,49l0 73c0,9 3,12 9,12 4,0 7,-1 9,-2l0 11c-3,4 -9,6 -15,6z"/>
  <path class="fil3" d="M2225 867c-23,0 -31,-15 -31,-46l0 -81 -22 0 0 -16 22 0 0 -39 21 -4 0 43 36 0 0 16 -36 0 0 84c0,16 4,26 16,26 10,0 17,-3 22,-7l3 11c-7,7 -17,12 -31,12z"/>
  <path class="fil3" d="M2414 735c-23,0 -39,18 -39,41 0,23 16,41 39,41 24,0 39,-18 39,-41 0,-23 -16,-41 -39,-41zm40 -10l32 0 0 16 -27 0c8,9 14,22 14,36 0,29 -23,54 -53,56 -34,3 -42,10 -42,21 0,10 10,16 38,18 50,5 70,23 70,48 0,31 -30,54 -71,54 -42,0 -70,-18 -70,-43 0,-18 15,-31 29,-34l9 5c-10,4 -18,14 -18,27 0,20 25,29 51,29 32,0 50,-14 50,-34 0,-20 -17,-28 -55,-32 -29,-3 -52,-11 -52,-36 0,-10 9,-23 27,-29 -18,-8 -32,-29 -32,-50 0,-31 27,-57 59,-57 16,0 26,5 40,5z"/>
  <path class="fil3" d="M2525 864l0 -140 21 -4 0 143 -21 0zm25 -199c0,8 -7,14 -14,14 -8,0 -14,-7 -14,-14 0,-8 7,-14 14,-14 8,0 14,7 14,14z"/>
  <polygon class="fil3" points="2654,865 2638,865 2578,724 2599,724 2647,838 2694,724 2715,724 "/>
  <path class="fil3" d="M2802 736c-20,0 -40,12 -45,37l83 0c2,-21 -13,-37 -38,-37zm2 133c-41,0 -70,-33 -70,-76 0,-46 33,-74 67,-74 34,0 59,23 59,55 0,5 -1,10 -2,15l-103 0c-2,29 11,63 57,63 15,0 31,-7 42,-15l7 13c-13,12 -34,20 -58,20z"/>
  <path class="fil1" d="M4094 307l-9 44 579 0 0 1310 -593 0 0 -168c53,-43 114,-75 179,-100 159,-62 243,-178 282,-338 7,-29 16,-62 24,-91 9,-32 18,-57 31,-88 5,-12 14,-27 11,-43 -1,-7 -16,-28 -27,-15 -23,26 -81,95 -97,122 -15,26 -25,55 -36,83 -34,87 -106,160 -188,190 -2,-2 -2,-2 -4,-4 11,-21 20,-43 32,-63 18,-28 39,-54 57,-83 0,-1 1,-1 1,-2 8,-15 -5,-32 -21,-30 -1,0 -2,0 -2,0 -47,12 -88,38 -125,68 -20,17 -41,33 -61,51 -97,83 -160,132 -180,256l0 230c0,0 0,0 0,-1l0 68 760 0 0 -1397 -614 0z"/>
  <path class="fil3" d="M3948 1637l0 -230c-19,-124 -82,-173 -180,-256 -20,-17 -40,-34 -61,-51 -37,-30 -78,-56 -125,-68 -1,0 -2,0 -2,0 -16,-2 -28,16 -21,30 0,1 1,1 1,2 18,28 39,54 57,83 13,20 22,42 32,63 -2,2 -2,2 -4,4 -83,-30 -155,-103 -188,-190 -11,-28 -21,-57 -36,-83 -16,-28 -78,-93 -102,-118 -5,-5 -14,-6 -19,-1 -13,13 -2,40 2,52 13,31 30,66 39,98 8,29 15,55 22,84 38,159 123,276 282,338 69,27 133,61 188,108l0 160 -601 0 0 -1310 744 0 19 -44 -807 0 0 1397 760 0 0 -68c0,0 0,0 0,0z"/>
  <path class="fil4" d="M4055 298c0,0 -136,172 -72,441 64,269 -12,524 -12,524 0,0 218,-313 245,-349 45,-59 311,-364 350,-417 0,0 -254,150 -338,175 -69,21 -222,32 -173,-374z"/>
  <path class="fil5" d="M4310 497c5,59 -39,111 -98,117 -59,5 -111,-39 -117,-98 -5,-59 39,-111 98,-117 59,-5 111,39 117,98z"/>
  <path class="fil6" d="M3729 617c8,59 -33,114 -92,122 -59,8 -114,-33 -122,-92 -8,-59 33,-114 92,-122 59,-8 114,33 122,92z"/>
  <path class="fil2" d="M3293 702c0,0 117,147 288,218 170,71 358,182 350,345 0,0 91,-403 -133,-766 0,0 34,205 -51,280 -85,74 -323,6 -453,-77z"/>
 </g>
</svg>
